<?xml version="1.0" standalone="no"?>
<!DOCTYPE svg PUBLIC "-//W3C//DTD SVG 20010904//EN"
 "http://www.w3.org/TR/2001/REC-SVG-20010904/DTD/svg10.dtd">
<svg version="1.0" xmlns="http://www.w3.org/2000/svg"
 width="260.000000pt" height="260.000000pt" viewBox="0 0 260.000000 260.000000"
 preserveAspectRatio="xMidYMid meet">
<metadata>
Created by potrace 1.11, written by Peter Selinger 2001-2013
</metadata>
<g transform="translate(0.000000,260.000000) scale(0.100000,-0.100000)"
fill="#000000" stroke="none">
<path d="M1070 2569 c-30 -5 -95 -23 -144 -40 -344 -117 -608 -371 -702 -674
-27 -86 -27 -483 -1 -630 35 -198 91 -414 145 -560 83 -224 234 -375 491 -490
256 -116 357 -140 576 -140 188 0 250 12 417 79 229 92 263 121 263 218 0 64
-20 100 -74 132 -49 28 -96 23 -186 -19 -205 -96 -367 -129 -521 -106 -208 30
-482 156 -584 269 -70 76 -107 163 -168 392 -90 337 -106 694 -40 840 91 198
327 375 566 425 130 27 280 13 462 -42 377 -114 541 -321 540 -681 -1 -142
-33 -200 -207 -378 -120 -122 -175 -156 -285 -174 -70 -11 -219 -13 -267 -4
-107 22 -249 300 -253 497 -1 47 1 53 40 87 53 47 150 80 238 80 l65 0 29 -64
c33 -72 74 -112 126 -122 76 -14 157 37 174 110 23 102 -90 310 -188 347 -46
18 -162 39 -210 39 -56 0 -199 -31 -262 -56 -120 -48 -224 -133 -274 -223
-123 -226 50 -761 300 -926 93 -62 152 -75 332 -75 324 1 464 64 696 315 118
128 186 226 218 313 30 82 37 333 13 458 -69 353 -271 577 -645 717 -228 85
-486 118 -680 86z"/>
</g>
</svg>
